HIERARCHY
ROOT hip
{
	OFFSET 0.000000 0.000000 0.000000 
	CHANNELS 6 Xposition Yposition Zposition Xrotation Zrotation Yrotation
	JOINT abdomen
	{
		OFFSET 0.000000 3.402643 0.000000 
		CHANNELS 3 Xrotation Zrotation Yrotation
		JOINT chest
		{
			OFFSET 0.000000 8.438565 -0.680529 
			CHANNELS 3 Xrotation Zrotation Yrotation
			JOINT neck
			{
				OFFSET 0.000000 10.207942 -0.272212 
				CHANNELS 3 Xrotation Zrotation Yrotation
				JOINT head
				{
					OFFSET 0.000000 3.130431 0.000000 
					CHANNELS 3 Xrotation Zrotation Yrotation
					End Site
					{
						OFFSET 0.000000 3.130435 0.000000 
					}
				}
			}
			JOINT lCollar
			{
				OFFSET 3.470700 6.669187 -0.816635 
				CHANNELS 3 Yrotation Zrotation Xrotation
				JOINT lShldr
				{
					OFFSET 3.198488 0.000000 0.000000 
					CHANNELS 3 Zrotation Yrotation Xrotation
					JOINT lForeArm
					{
						OFFSET 10.139888 0.000000 0.000000 
						CHANNELS 3 Yrotation Zrotation Xrotation
						JOINT lHand
						{
							OFFSET 8.370511 0.000000 0.000000 
							CHANNELS 3 Zrotation Yrotation Xrotation
							End Site
							{
								OFFSET 4.083176 0.000000 0.000000 
							}
						}
					}
				}
			}
			JOINT rCollar
			{
				OFFSET -3.470700 6.669187 -0.816635 
				CHANNELS 3 Yrotation Zrotation Xrotation
				JOINT rShldr
				{
					OFFSET -3.198488 0.000000 0.000000 
					CHANNELS 3 Zrotation Yrotation Xrotation
					JOINT rForeArm
					{
						OFFSET -10.139888 0.000000 0.000000 
						CHANNELS 3 Yrotation Zrotation Xrotation
						JOINT rHand
						{
							OFFSET -8.370511 0.000000 0.000000 
							CHANNELS 3 Zrotation Yrotation Xrotation
							End Site
							{
								OFFSET -4.083176 0.000000 0.000000 
							}
						}
					}
				}
			}
		}
	}
	JOINT lThigh
	{
		OFFSET 5.308129 -1.633274 1.361059 
		CHANNELS 3 Xrotation Zrotation Yrotation
		JOINT lShin
		{
			OFFSET -2.041588 -20.007561 0.000000 
			CHANNELS 3 Xrotation Zrotation Yrotation
			JOINT lFoot
			{
				OFFSET 0.000000 -19.190928 -1.224953 
				CHANNELS 3 Xrotation Yrotation Zrotation
				End Site
				{
					OFFSET 0.000000 -2.449906 4.627600 
				}
			}
		}
	}
	JOINT rThigh
	{
		OFFSET -5.308129 -1.633274 1.361059 
		CHANNELS 3 Xrotation Zrotation Yrotation
		JOINT rShin
		{
			OFFSET 2.041588 -20.007561 0.000000 
			CHANNELS 3 Xrotation Zrotation Yrotation
			JOINT rFoot
			{
				OFFSET 0.000000 -19.190928 -1.224953 
				CHANNELS 3 Xrotation Yrotation Zrotation
				End Site
				{
					OFFSET 0.000000 -2.449906 4.627600 
				}
			}
		}
	}
}
MOTION
Frames: 13
Frame Time: 0.033333
-23.913399 48.213352 -10.770952 -1.750967 3.309005 -2.317727 0.000000 0.000000 0.000000 1.770079 3.045424 -0.100857 3.133001 -0.740432 -1.356137 5.872635 3.882318 -4.159225 -2.845189 0.136540 2.274683 -70.900269 16.591862 8.833016 -40.234444 -4.993709 17.765804 -3.025268 7.019224 -3.654886 -0.762309 8.716803 2.304009 56.349960 -12.669533 12.108242 62.490932 4.481208 -16.523331 -5.261395 -1.115233 -3.577828 -11.930411 11.588122 5.346047 17.842655 -5.205732 6.538923 -1.587301 0.124687 -8.338225 -7.722405 -8.346402 -7.982223 31.780746 2.184100 -22.618507 -19.468685 -1.656421 9.601628 
-23.824038 48.190578 -10.695572 -1.839077 3.347888 -1.777174 0.000000 0.000000 0.000000 1.642700 2.879678 0.073170 3.134886 -0.651656 -1.419655 5.706955 3.667197 -4.237779 -2.808400 0.240005 2.156372 -70.899353 19.820139 7.568127 -39.378658 -4.716239 19.658340 -8.916316 8.299568 -3.935637 -0.565669 9.016608 2.176748 55.794449 -11.253531 13.288653 64.093765 4.032856 -17.239824 -5.458724 -1.382504 -3.570577 -12.020793 11.522612 5.346227 18.363075 -5.256049 5.192337 -2.095657 0.155137 -8.202972 -7.495525 -8.528399 -8.169831 31.920971 2.215405 -22.972563 -19.545977 -1.710994 9.872574 
-23.719376 48.128418 -10.634917 -1.740420 2.840488 -1.414293 0.000000 0.000000 0.000000 1.545194 3.075055 0.268862 2.899936 -0.508469 -1.287337 5.676601 3.959688 -4.381497 -2.471103 0.430919 2.057495 -70.455215 22.442877 7.462608 -38.982815 -4.915877 19.859371 -10.098145 7.596278 -3.922512 -0.403291 9.343156 2.088454 54.925449 -9.088133 14.370167 65.766014 3.653697 -17.973740 -3.588611 -1.330941 -3.533840 -12.893950 11.848530 5.252014 20.035425 -4.984104 5.042412 -2.976449 0.215102 -8.254155 -7.626648 -8.085419 -8.002561 32.084137 2.155027 -23.954653 -19.394503 -1.796122 10.399919 
-23.493423 48.089157 -10.521531 -1.818703 2.879411 -1.165495 0.000000 0.000000 0.000000 1.584018 2.869998 0.704721 2.715157 -0.641518 -1.345810 5.274369 4.172658 -4.909834 -2.077507 0.137105 2.065711 -69.687920 24.328238 7.309230 -38.890621 -4.988174 20.122868 -11.386240 6.850746 -3.890106 0.052944 9.618925 2.102360 54.164719 -6.354326 14.250965 66.928848 3.406543 -18.852951 -3.257372 -0.703370 -3.541172 -13.442942 11.021276 4.855581 21.318176 -4.401812 8.703955 -3.308713 0.258933 -8.413502 -7.447809 -8.451941 -8.180025 32.341866 2.118240 -23.744230 -19.511593 -1.859969 10.755567 
-23.346201 48.038818 -10.225298 -2.384088 1.873378 -0.253722 0.000000 0.000000 0.000000 1.770410 3.240643 0.705973 2.694570 -0.401851 -1.602001 4.929505 4.609688 -5.324800 -2.554235 0.657911 2.269729 -69.417038 25.954809 7.308716 -38.201408 -5.097442 20.582384 -11.204115 6.272674 -3.820818 0.012276 9.911124 2.275407 53.959553 -3.235771 14.040579 68.273560 2.984540 -19.863207 -3.278219 -0.371994 -3.540953 -14.009684 11.285281 5.275018 24.029648 -4.111364 12.565312 -4.374860 0.315551 -8.205453 -6.209605 -7.439072 -8.018559 31.906883 2.046525 -25.411604 -19.253386 -1.972172 11.621139 
-23.052458 48.024593 -10.139345 -1.631894 2.040188 -0.546356 0.000000 0.000000 0.000000 1.094988 2.724113 1.234094 2.623137 -0.815689 -1.386781 4.436257 5.152431 -5.725825 -1.797691 0.235156 1.604181 -68.389008 27.177252 7.536565 -37.577045 -5.269531 21.035091 -10.762581 5.335364 -3.708344 0.795844 9.514671 1.615990 53.585339 0.130328 13.993593 68.841209 2.715332 -20.224503 -0.878816 -0.331627 -3.487876 -15.121523 10.630183 5.461235 24.704771 -4.424211 19.454966 -4.009262 0.277028 -8.000915 -6.909057 -8.019678 -8.043107 32.015858 1.901179 -25.025393 -19.177286 -2.036680 12.005301 
-22.726763 48.025600 -9.908298 -1.914623 1.385945 -0.329516 0.000000 0.000000 0.000000 1.153714 2.792403 1.472638 2.565773 -0.726552 -1.454634 4.739915 5.203057 -5.985107 -1.456131 0.387691 1.649937 -68.105873 27.406273 7.074213 -36.810051 -5.168250 21.375032 -10.229541 4.930589 -3.654990 1.204271 9.544148 1.632394 52.811440 4.337772 13.087189 69.401741 2.362280 -19.140633 1.671441 -0.885277 -3.421828 -15.456928 10.496508 5.111033 25.743498 -4.054096 21.623743 -4.377756 0.308779 -7.996505 -5.946196 -7.751896 -8.140625 31.376366 1.962552 -25.302561 -18.862577 -2.094683 12.476432 
-22.355448 48.034786 -9.714877 -1.650777 1.239720 -0.055248 0.000000 0.000000 0.000000 0.840588 2.411850 1.666615 2.386693 -0.969196 -1.514575 4.818008 5.261996 -6.186946 -1.524481 0.001433 1.350742 -67.729347 27.453993 6.305329 -36.477169 -4.958418 20.857357 -10.559287 4.934390 -3.661039 1.416754 9.061934 1.344921 52.423267 9.777392 13.713109 70.577751 2.276029 -26.743685 -2.516057 -1.948571 -3.514532 -16.193245 9.857597 4.409181 25.582180 -3.427156 25.090887 -3.525681 0.246858 -8.117804 -5.644413 -7.997379 -8.194510 30.910652 1.880468 -25.527672 -18.571102 -2.151657 13.059108 
-22.001102 48.042088 -9.611183 -0.996198 0.829953 0.766820 0.000000 0.000000 0.000000 0.361587 2.167926 1.547241 2.031441 -1.245920 -1.811087 5.464661 5.382585 -6.329509 -1.586789 -0.660417 0.903953 -66.643196 26.830633 5.951419 -36.620869 -4.901698 19.911228 -10.475532 5.006815 -3.667196 1.518517 8.935987 0.905781 51.482231 14.768167 11.879007 68.772751 2.196645 -22.322645 1.451714 -1.132757 -3.446419 -17.082140 9.770367 4.245122 26.409739 -3.410718 24.242792 -4.447389 0.317605 -7.909729 -5.759264 -7.759141 -7.944337 30.316429 1.705594 -26.567028 -18.009239 -2.197813 13.783149 
-21.515560 48.038055 -9.422168 -0.918148 1.132667 1.104899 0.000000 0.000000 0.000000 0.341913 1.494114 1.835338 2.011916 -1.936631 -1.947855 5.286182 5.722881 -6.873453 -1.441380 -1.353248 0.867120 -65.910904 25.202755 5.318256 -36.962700 -4.720689 18.757454 -10.108510 4.633317 -3.622633 1.811967 8.517954 0.886740 50.605591 19.538164 9.978193 68.391418 2.079436 -22.364428 0.913242 -0.763063 -3.439116 -17.136322 8.826755 3.984520 26.938986 -3.446313 24.469326 -5.224753 0.349992 -7.701812 -5.428428 -8.688399 -8.208810 30.155483 1.562209 -26.321526 -17.788126 -2.275129 14.453949 
-20.992634 48.108532 -9.212765 -0.889063 1.699014 0.461931 0.000000 0.000000 0.000000 0.361352 0.664049 2.846098 2.091066 -2.665493 -1.462906 5.214654 6.180664 -7.513697 -0.983441 -2.048195 0.843302 -65.446503 22.750572 4.468229 -36.876476 -4.530465 17.038111 -9.500421 3.108208 -3.459605 2.923797 7.589479 0.903690 49.237717 24.417130 7.957004 67.480850 2.410181 -25.144609 -0.095936 -1.018361 -3.472956 -16.576290 7.838751 4.038895 26.540461 -3.852422 25.930027 -5.576022 0.346270 -7.296704 -4.910172 -9.856897 -8.468281 29.460091 1.287648 -25.111591 -17.444090 -2.277469 14.785125 
-20.509722 48.110546 -9.116117 -0.341897 1.386694 0.938994 0.000000 0.000000 0.000000 0.039064 0.498047 2.998471 2.223705 -3.079606 -1.637372 4.651691 6.576262 -8.089268 -1.289750 -2.506785 0.539568 -65.041634 20.021797 4.113576 -37.249409 -4.161443 17.489891 -8.033244 1.958809 -3.369733 3.645883 6.976070 0.589518 46.609974 28.663357 6.494092 65.545105 3.048246 -28.320925 -0.689371 -0.721314 -3.478141 -17.396538 7.409369 3.697201 27.110876 -3.790206 25.596525 -6.230381 0.382298 -6.932497 -5.018824 -9.987364 -8.361401 28.871998 1.198369 -25.937311 -16.738874 -2.306758 15.475620 
-19.991541 48.131313 -8.930753 -0.498314 1.874929 0.872376 0.000000 0.000000 0.000000 0.341801 -0.292964 3.279452 2.300444 -3.681772 -1.620528 4.700994 6.557159 -8.228841 -0.387158 -3.477632 0.813090 -63.855221 15.901922 4.753422 -37.213776 -4.214314 17.530342 -6.811070 1.102192 -3.322071 4.039469 6.081739 0.904087 45.224487 33.811584 2.842259 62.653782 3.404101 -27.846361 -1.383952 0.909596 -3.494226 -17.018866 6.258852 3.481176 27.004168 -3.878176 26.404533 -6.603054 0.395398 -6.581872 -4.491050 -11.079217 -8.757598 28.517920 1.021222 -25.510725 -16.377029 -2.311629 16.001265 
